# xmcd
#
# Track frame offsets: 
#        150
#        27602
#        56270
#        85320
#        117127
#        137875
#        158777
#        177515
#        201317
#        224102
#
# Disc length: 3184 seconds
#
# Revision: 0
# Processed by: cddbd v1.5.2PL0 Copyright (c) Steve Scherf et al.
# Submitted via: ExactAudioCopyFreeDBPlugin 1.0
#
DISCID=970c6e0a
DTITLE=HAYWOODE - Arrival
DYEAR=1985
DGENRE=R&B
TTITLE0=Roses (Extended)
TTITLE1=Getting Closer (Extended)
TTITLE2=Single Handed (Extended)
TTITLE3=I Can't Let You Go (Detroit Mix)
TTITLE4=Jelly Baby
TTITLE5=You'd Better Not Fool Around
TTITLE6=I Wanna Be Your Lover
TTITLE7=A Time Like This (Extended)
TTITLE8=Missing You
TTITLE9=Under Fire
EXTD=
EXTT0=
EXTT1=
EXTT2=
EXTT3=
EXTT4=
EXTT5=
EXTT6=
EXTT7=
EXTT8=
EXTT9=
PLAYORDER=
